<?xml version="1.0" standalone="no"?>
<!DOCTYPE svg PUBLIC "-//W3C//DTD SVG 20010904//EN"
 "http://www.w3.org/TR/2001/REC-SVG-20010904/DTD/svg10.dtd">
<svg version="1.0" xmlns="http://www.w3.org/2000/svg"
 width="1071.000000pt" height="1071.000000pt" viewBox="0 0 1071.000000 1071.000000"
 preserveAspectRatio="xMidYMid meet">
<metadata>
Created by potrace 1.11, written by Peter Selinger 2001-2013
</metadata>
<g transform="translate(0.000000,1071.000000) scale(0.100000,-0.100000)"
fill="#000000" stroke="none">
<path d="M5158 9574 c-2 -1 -28 -5 -58 -9 -264 -32 -467 -141 -574 -308 -110
-172 -120 -419 -26 -596 35 -65 85 -122 103 -116 6 2 41 6 77 9 36 3 106 8
155 12 50 3 93 8 98 11 4 2 7 -11 8 -29 0 -18 2 -55 5 -83 17 -203 22 -190
-81 -200 -33 -3 -71 -8 -85 -10 -27 -5 -25 -5 -210 -34 -678 -109 -1349 -352
-1836 -666 -258 -167 -494 -370 -685 -588 -34 -40 -67 -76 -74 -82 -13 -12
-121 -139 -153 -179 l-23 -30 -92 95 c-51 53 -130 124 -177 158 -122 91 -314
180 -425 196 -16 3 -56 9 -88 13 -83 13 -255 6 -342 -14 -5 -1 -28 -5 -50 -8
-60 -10 -233 -70 -321 -112 -80 -38 -274 -155 -274 -164 0 -3 19 -20 42 -38
148 -113 365 -376 608 -737 40 -60 76 -112 80 -115 3 -3 32 -44 64 -91 74
-110 263 -356 341 -445 33 -37 59 -75 59 -83 -1 -9 -7 -50 -13 -91 -7 -41 -14
-88 -16 -105 -2 -16 -7 -48 -10 -70 -13 -102 -24 -271 -25 -401 l0 -82 -72 -7
c-40 -4 -80 -9 -88 -10 -8 -2 -55 -6 -105 -10 -49 -4 -97 -9 -105 -10 -8 -2
-49 -6 -90 -10 -41 -4 -77 -8 -80 -10 -3 -2 -39 -6 -80 -10 -41 -4 -82 -9 -91
-10 -9 -2 -40 -6 -70 -9 -30 -4 -85 -11 -124 -16 -38 -5 -90 -12 -115 -15
-116 -15 -174 -135 -110 -228 49 -71 87 -75 385 -36 217 28 363 44 480 55 33
3 74 7 92 9 17 3 64 7 105 11 40 3 76 8 80 10 6 4 13 -19 23 -86 15 -92 28
-162 47 -235 25 -102 28 -147 8 -150 -49 -8 -154 -29 -305 -61 -11 -2 -56 -11
-100 -20 -44 -9 -127 -27 -185 -40 -58 -13 -177 -40 -265 -60 -88 -19 -173
-43 -190 -53 -119 -68 -88 -246 46 -267 22 -4 130 16 309 56 151 34 284 63
295 66 48 10 313 64 338 69 44 8 79 16 126 26 24 5 48 6 52 2 4 -4 26 -51 50
-103 23 -52 66 -139 96 -193 29 -54 53 -101 53 -105 0 -6 -323 -108 -401 -126
-9 -3 -200 -65 -425 -140 -264 -88 -418 -144 -435 -159 -44 -37 -58 -84 -44
-139 6 -26 18 -54 25 -63 23 -27 72 -48 115 -48 26 0 194 51 450 136 226 75
505 163 620 197 116 34 223 65 238 70 32 11 29 14 118 -100 125 -161 293 -337
444 -468 55 -48 102 -89 105 -93 3 -3 23 -18 45 -34 22 -17 42 -32 45 -35 13
-15 136 -104 230 -167 465 -311 1051 -554 1600 -663 52 -11 109 -22 125 -25
17 -3 44 -8 60 -11 17 -3 41 -7 55 -10 14 -2 52 -7 85 -10 33 -3 63 -8 67 -10
3 -2 39 -7 80 -10 40 -3 87 -7 103 -9 173 -23 691 -24 910 0 22 2 69 7 104 10
36 3 67 7 70 9 3 2 33 7 66 10 71 7 79 8 255 42 611 118 1172 345 1670 677
103 69 271 193 320 237 14 12 57 49 95 81 135 114 335 326 462 491 l75 96 66
-19 c37 -11 108 -31 157 -45 161 -46 373 -113 738 -234 227 -75 368 -117 385
-114 58 9 72 15 97 40 15 15 31 37 36 51 21 57 0 139 -44 168 -41 27 -771 268
-1103 364 l-161 47 54 99 c31 55 75 145 100 200 25 55 48 103 52 107 5 6 179
-25 311 -56 14 -3 39 -7 55 -10 17 -2 50 -9 75 -14 25 -6 56 -13 70 -16 20 -3
131 -28 230 -51 20 -5 124 -28 245 -55 54 -12 114 -20 132 -17 96 16 150 122
108 210 -20 42 -67 71 -135 86 -81 17 -86 18 -190 41 -52 12 -103 23 -113 25
-10 2 -26 7 -35 9 -29 9 -642 136 -657 136 -4 0 -4 8 0 17 4 10 8 25 10 33 2
8 15 62 29 120 14 58 28 123 31 145 24 157 23 156 48 150 12 -2 56 -7 97 -10
88 -6 183 -15 225 -20 17 -2 57 -6 90 -10 81 -8 144 -15 180 -20 17 -2 71 -9
120 -15 50 -5 108 -12 130 -15 180 -22 193 -22 232 -2 79 41 106 129 63 205
-35 63 -67 72 -390 107 -30 3 -62 8 -70 10 -8 2 -44 6 -80 10 -36 3 -76 7 -90
9 -14 2 -54 7 -90 11 -36 3 -78 8 -95 10 -35 5 -100 12 -205 21 -96 8 -98 9
-107 18 -4 4 -8 55 -9 114 -1 111 -11 288 -19 332 -2 14 -7 52 -10 85 -3 33
-8 69 -10 80 -3 11 -7 38 -10 59 -3 21 -8 49 -11 62 -5 19 8 39 64 101 99 111
220 271 416 552 94 134 186 264 204 290 18 25 41 57 50 71 9 14 36 50 60 80
24 30 49 62 55 70 83 107 223 252 312 325 l37 30 -69 44 c-177 115 -368 198
-538 231 -160 33 -368 34 -485 4 -225 -57 -393 -156 -570 -335 -74 -74 -109
-103 -115 -95 -6 6 -28 34 -50 61 -22 27 -63 74 -92 105 l-51 55 -3281 1
c-1804 0 -3283 3 -3286 6 -3 2 1 5 7 5 17 0 190 13 248 18 25 2 81 7 125 11
84 7 95 8 240 18 50 4 101 9 115 11 14 2 66 7 115 10 50 4 101 8 115 10 14 2
66 7 115 10 50 4 106 8 125 10 19 2 76 6 125 10 50 3 101 8 115 10 14 2 68 7
120 10 52 4 109 8 125 10 17 2 71 7 120 11 145 11 156 12 230 18 39 3 97 8
130 11 75 6 165 14 230 20 28 2 82 7 120 10 39 3 93 8 120 10 28 3 84 7 125
10 41 4 93 8 115 10 22 2 78 6 125 10 47 4 101 8 120 10 19 2 73 6 120 10 47
3 99 7 115 10 17 2 71 7 120 10 50 4 106 8 125 10 19 2 71 6 115 10 44 3 100
8 125 10 25 3 77 7 115 10 39 3 90 8 115 10 25 3 81 7 125 11 44 3 96 7 115 9
19 2 73 6 120 10 47 4 101 8 120 10 19 2 73 6 120 10 47 3 99 8 115 10 17 2
71 6 120 10 50 4 104 8 120 9 17 2 68 6 115 10 47 4 135 11 195 16 143 13 202
18 300 25 44 4 100 8 125 11 62 5 165 14 225 19 28 2 85 7 127 10 42 4 94 8
115 10 75 6 218 18 243 21 14 1 34 3 45 3 16 2 12 9 -25 42 -251 227 -670 460
-1059 589 -194 64 -509 141 -676 165 -23 3 -50 7 -60 9 -11 2 -47 7 -80 11
-33 4 -69 9 -80 10 -239 31 -412 39 -777 39 -278 0 -318 2 -319 16 0 8 -2 35
-4 60 -2 25 -6 84 -9 133 l-4 87 41 1 c23 1 51 3 62 4 11 2 64 6 118 10 145
10 137 7 169 68 46 86 57 130 65 242 6 102 -15 206 -62 301 -106 217 -317 323
-637 321 -65 0 -119 -1 -120 -3z m2192 -3958 c94 -12 229 -71 319 -141 226
-175 334 -454 335 -865 0 -230 -6 -274 -41 -304 -83 -73 -214 -115 -360 -114
-86 0 -221 13 -230 21 -3 3 -9 45 -19 127 -3 25 -7 56 -9 69 -2 14 -7 54 -10
90 -3 36 -8 77 -10 91 -10 55 -19 147 -31 285 -3 44 -8 96 -10 115 -2 19 -4
112 -5 205 l-1 170 -19 -65 c-10 -36 -21 -75 -23 -87 -3 -13 -7 -26 -10 -31
-3 -5 -7 -19 -10 -33 -3 -13 -14 -60 -26 -104 -12 -44 -32 -118 -45 -165 -155
-587 -168 -628 -189 -632 -42 -8 -266 3 -340 18 -11 2 -61 11 -111 19 -162 28
-657 155 -677 173 -8 8 163 237 305 406 127 153 376 401 487 488 275 213 496
293 730 264z m-3286 -11 c161 -34 348 -160 441 -297 51 -76 111 -213 131 -299
45 -196 57 -377 40 -584 -8 -102 -14 -111 -98 -162 -90 -55 -181 -73 -338 -68
-154 5 -192 12 -196 40 -10 75 -34 261 -39 315 -4 36 -8 73 -10 82 -2 9 -6 54
-10 100 -4 46 -9 92 -11 103 -9 43 -18 257 -18 394 l1 143 -34 -118 c-18 -66
-35 -128 -38 -139 -3 -11 -25 -94 -50 -185 -24 -91 -47 -174 -49 -185 -37
-158 -131 -483 -142 -491 -15 -12 -159 -12 -264 0 -49 6 -236 38 -300 51 -14
3 -36 7 -50 10 -22 4 -254 64 -425 109 -33 9 -70 20 -82 26 -22 9 -23 10 -5
38 18 29 172 234 182 242 3 3 35 41 70 85 68 85 95 116 200 228 102 109 189
191 326 307 33 27 230 160 238 160 3 0 33 13 67 30 65 31 152 59 209 67 19 3
37 7 39 9 10 10 152 2 215 -11z m1491 -1859 c22 -3 51 -8 65 -11 14 -3 34 -7
45 -10 50 -10 166 -46 224 -70 80 -31 234 -116 280 -154 l34 -28 -63 -49 c-54
-42 -296 -232 -340 -267 -8 -7 -87 -68 -175 -137 -88 -69 -189 -148 -225 -177
-36 -29 -68 -53 -71 -53 -5 0 -304 231 -379 293 -17 14 -466 366 -488 383 -11
8 0 20 55 56 171 115 413 205 599 223 32 4 61 9 64 12 6 6 316 -3 375 -11z
m-1886 -1051 c23 -44 45 -82 49 -85 4 -3 25 -32 47 -65 86 -130 328 -345 503
-448 80 -47 305 -155 350 -168 23 -7 42 -15 42 -18 0 -25 -448 30 -485 59 -5
4 -26 11 -45 15 -38 8 -64 18 -180 72 -164 76 -301 174 -440 313 -105 105
-194 215 -186 229 3 5 25 12 48 15 70 11 146 52 201 110 29 29 53 53 53 52 1
-1 21 -37 43 -81z"/>
</g>
</svg>
